<?xml version="1.0" standalone="no"?>
<!DOCTYPE svg PUBLIC "-//W3C//DTD SVG 20010904//EN"
 "http://www.w3.org/TR/2001/REC-SVG-20010904/DTD/svg10.dtd">
<svg version="1.0" xmlns="http://www.w3.org/2000/svg"
 width="695.000000pt" height="695.000000pt" viewBox="0 0 695.000000 695.000000"
 preserveAspectRatio="xMidYMid meet">
<metadata>
Created by potrace 1.11, written by Peter Selinger 2001-2013
</metadata>
<g transform="translate(0.000000,695.000000) scale(0.100000,-0.100000)"
fill="#000000" stroke="none">
<path d="M3410 6931 c-109 -39 -205 -105 -309 -211 -81 -83 -96 -102 -168
-210 -56 -83 -198 -350 -186 -350 3 0 1 -6 -4 -12 -14 -17 -68 -160 -108 -283
-50 -152 -113 -399 -139 -540 -6 -29 -11 -55 -21 -105 -9 -46 -24 -135 -30
-180 -6 -46 -9 -62 -20 -140 -12 -79 -14 -94 -20 -150 -3 -30 -8 -66 -10 -80
-2 -14 -7 -68 -10 -120 -4 -52 -9 -103 -11 -113 -1 -9 -6 -61 -9 -115 -4 -53
-8 -115 -10 -137 -24 -292 -24 -1222 0 -1560 2 -27 6 -99 10 -160 3 -60 8
-117 10 -125 2 -8 7 -58 11 -110 3 -52 8 -104 10 -115 3 -11 7 -40 9 -65 3
-25 8 -65 11 -90 3 -25 7 -61 10 -80 2 -19 6 -46 9 -60 3 -14 7 -43 10 -65 2
-22 7 -51 10 -65 3 -14 8 -45 11 -70 3 -25 8 -52 10 -60 2 -8 14 -69 28 -135
14 -66 41 -183 61 -260 20 -77 38 -147 39 -155 3 -13 86 -264 102 -310 3 -8 5
-17 6 -20 0 -3 5 -14 11 -25 6 -11 12 -25 13 -30 1 -6 10 -31 21 -55 11 -25
37 -85 59 -135 21 -49 41 -92 44 -95 6 -6 42 -83 42 -90 0 -3 5 -12 13 -20 7
-8 16 -25 19 -37 11 -34 26 -42 168 -83 73 -21 183 -53 243 -71 61 -18 118
-32 128 -31 19 1 442 125 487 143 19 7 40 38 79 115 46 92 102 209 106 224 1
3 7 19 14 35 51 123 78 197 117 314 25 74 46 142 48 150 2 9 6 23 9 31 9 22
89 347 93 375 0 6 4 21 7 35 4 14 9 39 12 55 3 17 12 71 21 120 18 101 18 101
34 207 6 42 13 86 15 97 2 11 7 51 10 88 4 37 9 82 12 98 4 31 5 41 18 180 3
44 8 96 10 115 2 19 6 85 10 145 3 61 8 134 10 164 26 329 19 1203 -11 1581
-3 41 -7 100 -9 130 -2 30 -6 73 -9 95 -3 22 -8 72 -11 110 -3 39 -7 81 -10
95 -2 14 -7 50 -10 80 -2 30 -7 66 -9 80 -3 14 -10 61 -16 105 -6 44 -13 89
-15 100 -1 11 -6 42 -10 70 -4 27 -11 59 -16 71 -4 12 -5 24 -2 27 3 3 1 12
-3 19 -5 7 -9 26 -10 43 -1 16 -5 39 -8 50 -4 17 -22 96 -41 180 -3 11 -18 70
-35 130 -17 61 -32 118 -35 127 -8 35 -69 207 -107 302 -71 180 -179 378 -273
501 -92 122 -303 305 -351 305 -8 0 -14 5 -14 10 0 6 -3 9 -7 8 -5 0 -16 2
-25 5 -43 17 -54 20 -73 22 -11 1 -40 -5 -65 -14z"/>
</g>
</svg>
